<svg width="81" height="81" fill="none" xmlns="http://www.w3.org/2000/svg"><g clip-path="url(#clip0)" fill="#8033FD"><path d="M40.5 25.069c-8.51 0-15.434 6.923-15.434 15.432 0 8.51 6.923 15.434 15.434 15.434 8.51 0 15.432-6.924 15.432-15.434 0-8.51-6.923-15.432-15.432-15.432zm9.162 12.526L38.606 48.651a2.37 2.37 0 01-1.68.697 2.367 2.367 0 01-1.681-.697l-4.225-4.225a2.376 2.376 0 113.36-3.36l2.545 2.544 9.377-9.376a2.376 2.376 0 113.36 3.361z"/><path d="M74.907 21.977l-.002-.063a84.47 84.47 0 01-.073-2.517c-.066-4.466-3.616-8.16-8.083-8.41-9.313-.52-16.518-3.556-22.673-9.556l-.053-.05a5.184 5.184 0 00-7.045 0l-.052.05c-6.156 6-13.36 9.036-22.673 9.557-4.466.249-8.017 3.943-8.083 8.41-.014.91-.038 1.733-.073 2.516l-.004.147c-.181 9.496-.406 21.315 3.548 32.043 2.174 5.899 5.466 11.027 9.785 15.242 4.92 4.8 11.363 8.611 19.15 11.327a5.925 5.925 0 001.925.327 5.817 5.817 0 001.927-.328c7.779-2.72 14.215-6.534 19.13-11.334 4.317-4.216 7.61-9.345 9.786-15.246 3.968-10.76 3.744-22.6 3.563-32.115zM40.5 60.687c-11.131 0-20.187-9.055-20.187-20.186 0-11.13 9.056-20.186 20.186-20.186S60.686 29.37 60.686 40.5 51.63 60.687 40.499 60.687z"/></g><defs><clipPath id="clip0"><path fill="#fff" d="M0 0h81v81H0z"/></clipPath></defs></svg>