<svg width="81" height="81" fill="none" xmlns="http://www.w3.org/2000/svg"><path d="M12.023 37.969a7.083 7.083 0 004.928-2.002l7.025 3.512c-.035.286-.087.567-.087.863 0 3.925 3.193 7.119 7.119 7.119 3.925 0 7.119-3.194 7.119-7.12a7.04 7.04 0 00-.714-3.049l9.53-9.53a7.033 7.033 0 003.05.715c3.925 0 7.118-3.194 7.118-7.12 0-.739-.145-1.438-.355-2.108l8.28-6.208a7.071 7.071 0 003.94 1.197c3.926 0 7.12-3.193 7.12-7.119 0-3.925-3.194-7.119-7.12-7.119-3.925 0-7.119 3.194-7.119 7.12 0 .738.146 1.437.356 2.108l-8.28 6.208a7.072 7.072 0 00-3.94-1.198 7.128 7.128 0 00-7.12 7.12c0 1.095.27 2.121.714 3.05l-9.53 9.528a7.033 7.033 0 00-3.05-.713 7.083 7.083 0 00-4.927 2.001l-7.025-3.512c.036-.286.088-.567.088-.862a7.128 7.128 0 00-7.12-7.12c-3.925 0-7.119 3.194-7.119 7.12 0 3.925 3.194 7.119 7.12 7.119z" fill="#8033FD"/><path d="M78.627 76.254h-2.531v-50.15a2.372 2.372 0 00-2.373-2.373H64.23a2.372 2.372 0 00-2.374 2.372v50.15H57.11v-35.91a2.372 2.372 0 00-2.373-2.373h-9.492a2.372 2.372 0 00-2.373 2.373v35.912h-4.746V59.326a2.372 2.372 0 00-2.373-2.373h-9.492a2.372 2.372 0 00-2.373 2.373v16.928h-4.746v-26.42a2.372 2.372 0 00-2.373-2.373H7.277a2.372 2.372 0 00-2.373 2.373v26.42H2.373a2.372 2.372 0 100 4.746h76.254a2.372 2.372 0 100-4.746z" fill="#8033FD"/></svg>