<svg width="101" height="84" fill="none" xmlns="http://www.w3.org/2000/svg"><path fill-rule="evenodd" clip-rule="evenodd" d="M10.033 14.332A9.752 9.752 0 00.28 24.085c0 5.387 4.366 9.754 9.753 9.754h52.948c5.387 0 9.753-4.367 9.753-9.754s-4.366-9.753-9.753-9.753H10.033zm.2 14.331a4.777 4.777 0 100-9.554 4.777 4.777 0 000 9.554zm11.942-4.777a2.389 2.389 0 11-4.777 0 2.389 2.389 0 014.777 0zm5.176 2.389a2.389 2.389 0 100-4.777 2.389 2.389 0 000 4.777zM10.033 39.412C4.646 39.412.28 43.78.28 49.166s4.366 9.753 9.753 9.753H71.74c5.387 0 9.754-4.366 9.754-9.753 0-5.387-4.367-9.754-9.754-9.754H10.033zm.2 14.332a4.777 4.777 0 100-9.554 4.777 4.777 0 000 9.554zm11.942-4.777a2.389 2.389 0 11-4.777 0 2.389 2.389 0 014.777 0zm5.176 2.388a2.389 2.389 0 100-4.777 2.389 2.389 0 000 4.777z" fill="#8033FD"/><path fill="#8033FD" d="M36.507 56.531h6.768v14.332h-6.768z"/><circle cx="40.09" cy="76.834" r="7.166" fill="#8033FD"/><path d="M73.695 31.215l.391.23.39-.23a.823.823 0 00-.39-1.54.823.823 0 00-.39 1.54zM62.101 18.581v-2.557c0-6.63 5.36-12.043 11.985-12.043 6.625 0 11.985 5.413 11.985 12.043v2.557a6.012 6.012 0 014.799 5.89v16.894c0 3.304-2.672 6.01-5.988 6.01H63.29c-3.316 0-5.988-2.706-5.988-6.01V24.471a6.012 6.012 0 014.799-5.89zm15.994-2.557c0-2.244-1.813-4.048-4.009-4.048-2.196 0-4.01 1.804-4.01 4.048v2.438h8.02v-2.438z" fill="#8033FD" stroke="#fff" stroke-width="4.777"/><path d="M73.695 31.215l.391.23.39-.23a.823.823 0 00-.39-1.54.823.823 0 00-.39 1.54zM62.101 18.581v-2.557c0-6.63 5.36-12.043 11.985-12.043 6.625 0 11.985 5.413 11.985 12.043v2.557a6.012 6.012 0 014.799 5.89v16.894c0 3.304-2.672 6.01-5.988 6.01H63.29c-3.316 0-5.988-2.706-5.988-6.01V24.471a6.012 6.012 0 014.799-5.89zm15.994-2.557c0-2.244-1.813-4.048-4.009-4.048-2.196 0-4.01 1.804-4.01 4.048v2.438h8.02v-2.438z" stroke="#fff" stroke-width="4.777"/><path fill-rule="evenodd" clip-rule="evenodd" d="M51.556 80.019c.31-1.074.477-2.21.477-3.384 0-1.03-.128-2.03-.37-2.986H73.93a3.185 3.185 0 110 6.37H51.556zm-23.33 0H6.65a3.185 3.185 0 010-6.37h21.47c-.242.956-.37 1.956-.37 2.986 0 1.174.167 2.31.478 3.384z" fill="#8033FD"/></svg>