<svg width="81" height="81" fill="none" xmlns="http://www.w3.org/2000/svg"><path d="M33.38 81v-7.277c-5.234 0-9.491-4.257-9.491-9.492 0-5.236 4.257-9.493 9.492-9.493V47.62H20.116l1.128-3.17a4.643 4.643 0 00.272-1.576 4.752 4.752 0 00-4.746-4.746 4.752 4.752 0 00-4.747 4.746c0 .542.09 1.073.272 1.576l1.128 3.17H0C1.178 65.352 15.648 79.823 33.38 81z" fill="#8033FD"/><path d="M16.77 33.38c5.235 0 9.492 4.258 9.492 9.493h7.119V29.608l3.17 1.129c2.922 1.04 6.32-1.319 6.322-4.475-.002-3.159-3.397-5.537-6.322-4.475l-3.17 1.128V9.771C15.648 10.948 1.178 25.14 0 42.873h7.277c0-5.235 4.257-9.492 9.493-9.492zm54.46 14.24h-7c0 5.234-4.257 9.491-9.492 9.491-5.235 0-9.492-4.257-9.492-9.492h-7.119v13.265l-3.17-1.129c-2.934-1.054-6.325 1.317-6.322 4.476-.003 3.158 3.39 5.529 6.322 4.474l3.17-1.128V81c17.733-1.177 31.925-15.648 33.102-33.38z" fill="#8033FD"/><path d="M71.35 19.143V9.65h-9.493C61.857 4.415 57.6 0 52.365 0c-5.235 0-9.492 4.415-9.492 9.65h-4.746v7.12c5.235 0 9.492 4.257 9.492 9.492 0 5.235-4.257 9.492-9.492 9.492v7.119h13.265l-1.129 3.17a4.645 4.645 0 00-.27 1.576 4.752 4.752 0 004.745 4.746 4.752 4.752 0 004.746-4.746c0-.542-.09-1.073-.27-1.576l-1.13-3.17H71.35v-4.746c5.235 0 9.65-4.257 9.65-9.492 0-5.235-4.415-9.492-9.65-9.492z" fill="#8033FD"/></svg>