<svg width="81" height="81" fill="none" xmlns="http://www.w3.org/2000/svg"><g clip-path="url(#clip0)" fill="#8033FD"><path d="M79.731 38.106a2.845 2.845 0 00-.253-.152L73.73 34.86 41.854 51.736a2.893 2.893 0 01-2.708 0L7.27 34.859l-5.748 3.095A2.864 2.864 0 00.486 42.08L40.5 63.264 80.514 42.08a2.864 2.864 0 00-.783-3.974z"/><path d="M80.65 56.483a2.892 2.892 0 00-1.172-1.171l-5.747-3.096-31.877 16.877a2.893 2.893 0 01-2.708 0L7.27 52.216l-5.748 3.096a2.893 2.893 0 000 5.09l37.607 20.25a2.886 2.886 0 002.742 0l37.607-20.25a2.893 2.893 0 001.172-3.919zm-.919-35.735a2.868 2.868 0 00-.253-.15L41.871.347a2.893 2.893 0 00-2.742 0L1.522 20.597a2.864 2.864 0 00-1.036 4.124L40.5 45.907l40.014-21.185a2.864 2.864 0 00-.783-3.974z"/></g><defs><clipPath id="clip0"><path fill="#fff" d="M0 0h81v81H0z"/></clipPath></defs></svg>