<svg width="84" height="84" fill="none" xmlns="http://www.w3.org/2000/svg"><path d="M61.364 39.662A19.55 19.55 0 0044.29 22.63a20.47 20.47 0 00-2.316-.132 19.5 19.5 0 00-13.708 33.339A15.357 15.357 0 0133 66.747V69h18v-2.265a15.018 15.018 0 014.566-10.733 19.437 19.437 0 005.798-16.34zM42 84a4.508 4.508 0 004.243-3h-8.486A4.507 4.507 0 0042 84zm-7.5-7.5A1.502 1.502 0 0036 78h12a1.502 1.502 0 001.5-1.5V72h-15v4.5zm7.5-63a3 3 0 003-3V3a3 3 0 00-6 0v7.5a3 3 0 003 3zm-25.318 7.424a3.071 3.071 0 004.243 0 3 3 0 000-4.242l-5.304-5.303A2.998 2.998 0 0010.5 13.5c0 .796.316 1.559.879 2.121l5.303 5.303zM13.5 42a3 3 0 00-3-3H3a3.003 3.003 0 00-3 3 3.003 3.003 0 003 3h7.5a3 3 0 003-3zm6.082 20.294a3 3 0 00-2.9.781l-5.303 5.304a3 3 0 000 4.242 3.07 3.07 0 004.242 0l5.304-5.302a3 3 0 00-1.343-5.025zm47.736.781a3 3 0 10-4.242 4.243l5.303 5.303a3.07 3.07 0 004.242 0 3 3 0 000-4.242l-5.303-5.304zM81 39h-7.5a3 3 0 000 6H81a3 3 0 000-6zM67.318 20.925l5.303-5.304a3 3 0 10-4.242-4.242l-5.304 5.302a3 3 0 000 4.243 3.072 3.072 0 004.243 0z" fill="#8033FD"/></svg>