<svg width="1439" height="719" fill="none" xmlns="http://www.w3.org/2000/svg"><path d="M1438 359.5c0 98.69-80.09 188.307-210.18 253.31C1097.78 677.784 918.063 718 719.5 718s-378.279-40.216-508.316-105.19C81.086 547.807 1 458.19 1 359.5s80.086-188.307 210.184-253.31C341.221 41.216 520.937 1 719.5 1s378.28 40.216 508.32 105.19C1357.91 171.193 1438 260.81 1438 359.5z" stroke="#E6E6E6" stroke-opacity=".5" stroke-width="2"/><path d="M1379 359.5c0 90.683-73.48 173.049-192.9 232.805C1066.74 652.03 901.77 689 719.5 689c-182.27 0-347.236-36.97-466.597-96.695C133.483 532.549 60 450.183 60 359.5c0-90.683 73.483-173.049 192.903-232.804C372.264 66.97 537.23 30 719.5 30c182.27 0 347.24 36.97 466.6 96.696C1305.52 186.451 1379 268.817 1379 359.5z" stroke="#E6E6E6" stroke-opacity=".5" stroke-width="2"/><path d="M1320 359.5c0 80.174-66.86 153.044-175.61 205.929C1035.7 618.282 885.482 651 719.5 651c-165.982 0-316.201-32.718-424.887-85.571C185.858 512.544 119 439.674 119 359.5s66.858-153.044 175.613-205.929C403.299 100.718 553.518 68 719.5 68c165.982 0 316.2 32.718 424.89 85.571C1253.14 206.456 1320 279.326 1320 359.5z" stroke="#E6E6E6" stroke-opacity=".5" stroke-width="2"/></svg>