<svg width="1439" height="733" fill="none" xmlns="http://www.w3.org/2000/svg"><path d="M1438 373.5c0 98.69-80.09 188.307-210.18 253.31C1097.78 691.784 918.063 732 719.5 732s-378.279-40.216-508.316-105.19C81.086 561.807 1 472.19 1 373.5s80.086-188.307 210.184-253.31C341.221 55.216 520.937 15 719.5 15s378.28 40.216 508.32 105.19C1357.91 185.193 1438 274.81 1438 373.5z" stroke="#E7E7E7" stroke-width="2"/><path d="M1379 373.5c0 90.683-73.48 173.049-192.9 232.805C1066.74 666.03 901.77 703 719.5 703c-182.27 0-347.236-36.97-466.597-96.695C133.483 546.549 60 464.183 60 373.5c0-90.683 73.483-173.049 192.903-232.804C372.264 80.97 537.23 44 719.5 44c182.27 0 347.24 36.97 466.6 96.696C1305.52 200.451 1379 282.817 1379 373.5z" stroke="#E7E7E7" stroke-width="2"/><path d="M1320 373.5c0 80.174-66.86 153.044-175.61 205.929C1035.7 632.282 885.482 665 719.5 665c-165.982 0-316.201-32.718-424.887-85.571C185.858 526.544 119 453.674 119 373.5s66.858-153.044 175.613-205.929C403.299 114.718 553.518 82 719.5 82c165.982 0 316.2 32.718 424.89 85.571C1253.14 220.456 1320 293.326 1320 373.5z" stroke="#E7E7E7" stroke-width="2"/><g filter="url(#filter0_d)"><path d="M1320.5 574c4.69 0 8.5-3.806 8.5-8.5s-3.81-8.5-8.5-8.5c-4.69 0-8.5 3.806-8.5 8.5s3.81 8.5 8.5 8.5z" fill="#8033FD"/></g><path d="M1323.15 568.184a3.736 3.736 0 000-5.27 3.727 3.727 0 00-5.27 0 3.718 3.718 0 000 5.27 3.727 3.727 0 005.27 0z" fill="#fff"/><g filter="url(#filter1_d)"><path d="M1232.5 173c4.69 0 8.5-3.806 8.5-8.5s-3.81-8.5-8.5-8.5c-4.69 0-8.5 3.806-8.5 8.5s3.81 8.5 8.5 8.5z" fill="#8033FD"/></g><path d="M1235.15 167.183a3.735 3.735 0 000-5.269 3.727 3.727 0 00-5.27 0 3.717 3.717 0 000 5.269 3.725 3.725 0 005.27 0z" fill="#fff"/><g filter="url(#filter2_d)"><path d="M157.5 280a8.5 8.5 0 10-.001-17.001A8.5 8.5 0 00157.5 280z" fill="#8033FD"/></g><path d="M160.146 274.183a3.726 3.726 0 10-5.269-5.269 3.726 3.726 0 005.269 5.269z" fill="#fff"/><g filter="url(#filter3_d)"><path d="M899.5 31a8.5 8.5 0 100-17 8.5 8.5 0 000 17z" fill="#8033FD"/></g><path d="M902.146 25.183a3.726 3.726 0 10-5.27-5.27 3.726 3.726 0 005.27 5.27z" fill="#fff"/><g filter="url(#filter4_d)"><path d="M191.5 579a8.5 8.5 0 10-.001-17.001A8.5 8.5 0 00191.5 579z" fill="#8033FD"/></g><path d="M194.146 573.184a3.727 3.727 0 00-5.268-5.27 3.727 3.727 0 005.268 5.27z" fill="#fff"/><g filter="url(#filter5_d)"><path d="M1366.5 323c4.69 0 8.5-3.806 8.5-8.5s-3.81-8.5-8.5-8.5c-4.69 0-8.5 3.806-8.5 8.5s3.81 8.5 8.5 8.5z" fill="#8033FD"/></g><path d="M1369.15 317.183a3.735 3.735 0 000-5.269 3.727 3.727 0 00-5.27 0 3.717 3.717 0 000 5.269 3.725 3.725 0 005.27 0z" fill="#fff"/><g filter="url(#filter6_d)"><path d="M425.5 89a8.5 8.5 0 100-17 8.5 8.5 0 000 17z" fill="#8033FD"/></g><path d="M428.146 83.183a3.726 3.726 0 10-5.27-5.27 3.726 3.726 0 005.27 5.27z" fill="#fff"/><defs><filter id="filter0_d" x="1295" y="543" width="53" height="53" filterUnits="userSpaceOnUse" color-interpolation-filters="sRGB"><feFlood flood-opacity="0" result="BackgroundImageFix"/><feColorMatrix in="SourceAlpha" values="0 0 0 0 0 0 0 0 0 0 0 0 0 0 0 0 0 0 127 0"/><feOffset dx="1" dy="4"/><feGaussianBlur stdDeviation="9"/><feColorMatrix values="0 0 0 0 0 0 0 0 0 0 0 0 0 0 0 0 0 0 0.25 0"/><feBlend in2="BackgroundImageFix" result="effect1_dropShadow"/><feBlend in="SourceGraphic" in2="effect1_dropShadow" result="shape"/></filter><filter id="filter1_d" x="1207" y="142" width="53" height="53" filterUnits="userSpaceOnUse" color-interpolation-filters="sRGB"><feFlood flood-opacity="0" result="BackgroundImageFix"/><feColorMatrix in="SourceAlpha" values="0 0 0 0 0 0 0 0 0 0 0 0 0 0 0 0 0 0 127 0"/><feOffset dx="1" dy="4"/><feGaussianBlur stdDeviation="9"/><feColorMatrix values="0 0 0 0 0 0 0 0 0 0 0 0 0 0 0 0 0 0 0.25 0"/><feBlend in2="BackgroundImageFix" result="effect1_dropShadow"/><feBlend in="SourceGraphic" in2="effect1_dropShadow" result="shape"/></filter><filter id="filter2_d" x="132" y="249" width="53" height="53" filterUnits="userSpaceOnUse" color-interpolation-filters="sRGB"><feFlood flood-opacity="0" result="BackgroundImageFix"/><feColorMatrix in="SourceAlpha" values="0 0 0 0 0 0 0 0 0 0 0 0 0 0 0 0 0 0 127 0"/><feOffset dx="1" dy="4"/><feGaussianBlur stdDeviation="9"/><feColorMatrix values="0 0 0 0 0 0 0 0 0 0 0 0 0 0 0 0 0 0 0.25 0"/><feBlend in2="BackgroundImageFix" result="effect1_dropShadow"/><feBlend in="SourceGraphic" in2="effect1_dropShadow" result="shape"/></filter><filter id="filter3_d" x="874" y="0" width="53" height="53" filterUnits="userSpaceOnUse" color-interpolation-filters="sRGB"><feFlood flood-opacity="0" result="BackgroundImageFix"/><feColorMatrix in="SourceAlpha" values="0 0 0 0 0 0 0 0 0 0 0 0 0 0 0 0 0 0 127 0"/><feOffset dx="1" dy="4"/><feGaussianBlur stdDeviation="9"/><feColorMatrix values="0 0 0 0 0 0 0 0 0 0 0 0 0 0 0 0 0 0 0.25 0"/><feBlend in2="BackgroundImageFix" result="effect1_dropShadow"/><feBlend in="SourceGraphic" in2="effect1_dropShadow" result="shape"/></filter><filter id="filter4_d" x="166" y="548" width="53" height="53" filterUnits="userSpaceOnUse" color-interpolation-filters="sRGB"><feFlood flood-opacity="0" result="BackgroundImageFix"/><feColorMatrix in="SourceAlpha" values="0 0 0 0 0 0 0 0 0 0 0 0 0 0 0 0 0 0 127 0"/><feOffset dx="1" dy="4"/><feGaussianBlur stdDeviation="9"/><feColorMatrix values="0 0 0 0 0 0 0 0 0 0 0 0 0 0 0 0 0 0 0.25 0"/><feBlend in2="BackgroundImageFix" result="effect1_dropShadow"/><feBlend in="SourceGraphic" in2="effect1_dropShadow" result="shape"/></filter><filter id="filter5_d" x="1341" y="292" width="53" height="53" filterUnits="userSpaceOnUse" color-interpolation-filters="sRGB"><feFlood flood-opacity="0" result="BackgroundImageFix"/><feColorMatrix in="SourceAlpha" values="0 0 0 0 0 0 0 0 0 0 0 0 0 0 0 0 0 0 127 0"/><feOffset dx="1" dy="4"/><feGaussianBlur stdDeviation="9"/><feColorMatrix values="0 0 0 0 0 0 0 0 0 0 0 0 0 0 0 0 0 0 0.25 0"/><feBlend in2="BackgroundImageFix" result="effect1_dropShadow"/><feBlend in="SourceGraphic" in2="effect1_dropShadow" result="shape"/></filter><filter id="filter6_d" x="400" y="58" width="53" height="53" filterUnits="userSpaceOnUse" color-interpolation-filters="sRGB"><feFlood flood-opacity="0" result="BackgroundImageFix"/><feColorMatrix in="SourceAlpha" values="0 0 0 0 0 0 0 0 0 0 0 0 0 0 0 0 0 0 127 0"/><feOffset dx="1" dy="4"/><feGaussianBlur stdDeviation="9"/><feColorMatrix values="0 0 0 0 0 0 0 0 0 0 0 0 0 0 0 0 0 0 0.25 0"/><feBlend in2="BackgroundImageFix" result="effect1_dropShadow"/><feBlend in="SourceGraphic" in2="effect1_dropShadow" result="shape"/></filter></defs></svg>