<svg width="111" height="84" fill="none" xmlns="http://www.w3.org/2000/svg"><path fill-rule="evenodd" clip-rule="evenodd" d="M13.355 9.333A6.31 6.31 0 017.467 5.29L.644 20.64A7.467 7.467 0 000 23.673v52.86A7.467 7.467 0 007.467 84h95.2a7.467 7.467 0 007.466-7.467V16.8a7.467 7.467 0 00-7.466-7.467H13.356zM55.068 28a2.8 2.8 0 00-2.8 2.8v14h-14a2.8 2.8 0 100 5.6h14v14a2.8 2.8 0 105.6 0v-14h14a2.8 2.8 0 100-5.6h-14v-14a2.8 2.8 0 00-2.8-2.8z" fill="#8033FD"/><path d="M6.222 9.956C6.222 4.457 10.68 0 16.178 0h34.844c5.498 0 9.956 4.457 9.956 9.956v6.222H6.222V9.956z" fill="#8033FD"/></svg>