<svg width="134" height="75" fill="none" xmlns="http://www.w3.org/2000/svg"><path d="M35 68H5V37c16.568 0 30 13.685 30 30.564V68z" fill="#442872"/><path d="M39.426 68h-3.852C18.686 68 5 54.344 5 37.5S18.69 7 35.574 7H70v30.5C70 54.344 56.314 68 39.426 68z" fill="#8033FF"/><path fill-rule="evenodd" clip-rule="evenodd" d="M69.075 45.14h4.878L75.301 48h6.215v-.822L71.059 24.754H70v10.618l2.046 4.737h-2.193c-.138 1.295-.384 3.2-.778 5.03zm35.628 2.926l-12.1-11.936V48h-6.017V24.885h1.874l12 11.345V24.984h6.017v23.082h-1.775zm29.194-.954l-4.505-7.3c2.236-1.534 3.376-3.77 3.42-6.707 0-2.192-.735-4.099-2.203-5.721-1.447-1.622-3.475-2.433-6.083-2.433 0-.022-1.688-.022-5.064 0h-5.064v23.016h6.018v-7.2h3.156l3.946 7.2h6.379v-.855zm-9.404-11.245h-4.176V30.18h4.176c.811 0 1.425.274 1.841.822.438.526.658 1.183.658 1.973 0 .789-.22 1.468-.658 2.038-.438.57-1.052.855-1.841.855z" fill="#3D3131"/><path fill-rule="evenodd" clip-rule="evenodd" d="M69.72 24.753h-1.422L57.743 47.178V48h6.28l1.315-2.86h3.621c.404-1.523.738-3.212.93-5.031h-2.61l2.367-5.557.346.801a592.802 592.802 0 00-.273-10.6zM21.721 47.968h-6.017V24.951h5.063c3.376-.022 5.075-.022 5.097 0 2.608 0 4.647.866 6.115 2.597 1.47 1.71 2.181 3.727 2.138 6.05 0 2.28-.735 4.253-2.203 5.919-1.447 1.666-3.464 2.499-6.05 2.499h-4.143v5.951zm-.099-11.18h4.242c.745 0 1.348-.328 1.808-.986.46-.68.69-1.468.69-2.367 0-.877-.219-1.633-.657-2.269-.439-.657-1.052-.986-1.841-.986h-4.242v6.609zM46.29 24.985v17.624h8.319V48H40.273V24.984h6.017z" fill="#fff"/><path d="M6.596 72.767a6.5 6.5 0 100-13 6.5 6.5 0 000 13z" fill="#8033FF"/><path d="M8.62 68.319a2.85 2.85 0 00-4.03-4.03 2.85 2.85 0 004.029 4.03z" fill="#fff"/><path d="M69.5 13.5a6.5 6.5 0 100-13 6.5 6.5 0 000 13z" fill="#8033FF"/><path d="M71.523 9.052a2.85 2.85 0 10-4.03-4.03 2.85 2.85 0 004.03 4.03z" fill="#fff"/></svg>